<?xml version="1.0" encoding="UTF-8"?><svg xmlns="http://www.w3.org/2000/svg" xmlns:xlink="http://www.w3.org/1999/xlink" stroke-dasharray="none" shape-rendering="auto" font-family="'Dialog'" width="620" text-rendering="auto" fill-opacity="1" contentScriptType="text/ecmascript" color-interpolation="auto" color-rendering="auto" preserveAspectRatio="xMidYMid meet" font-size="12" viewBox="0 0 620 476" fill="black" stroke="black" image-rendering="auto" stroke-miterlimit="10" zoomAndPan="magnify" version="1.0" stroke-linecap="square" stroke-linejoin="miter" contentStyleType="text/css" font-style="normal" height="476" stroke-width="1" stroke-dashoffset="0" font-weight="normal" stroke-opacity="1">
<!--Generated by the Batik Graphics2D SVG Generator-->
<defs id="genericDefs"/>
<g>
<defs id="defs1">
<linearGradient x1="134" x2="134" y1="350" gradientUnits="userSpaceOnUse" y2="466" xlink:type="simple" xlink:actuate="onLoad" id="linearGradient1" xlink:show="other" spreadMethod="pad">
<stop stop-opacity="1" stop-color="white" offset="0%"/>
<stop stop-opacity="1" stop-color="rgb(195,209,213)" offset="100%"/>
</linearGradient>
<linearGradient x1="249" x2="249" y1="228" gradientUnits="userSpaceOnUse" y2="289" xlink:type="simple" xlink:actuate="onLoad" id="linearGradient2" xlink:show="other" spreadMethod="pad">
<stop stop-opacity="1" stop-color="white" offset="0%"/>
<stop stop-opacity="1" stop-color="rgb(195,215,221)" offset="100%"/>
</linearGradient>
<linearGradient x1="258" x2="258" y1="350" gradientUnits="userSpaceOnUse" y2="466" xlink:type="simple" xlink:actuate="onLoad" id="linearGradient3" xlink:show="other" spreadMethod="pad">
<stop stop-opacity="1" stop-color="white" offset="0%"/>
<stop stop-opacity="1" stop-color="rgb(195,209,213)" offset="100%"/>
</linearGradient>
<linearGradient x1="382" x2="382" y1="350" gradientUnits="userSpaceOnUse" y2="466" xlink:type="simple" xlink:actuate="onLoad" id="linearGradient4" xlink:show="other" spreadMethod="pad">
<stop stop-opacity="1" stop-color="white" offset="0%"/>
<stop stop-opacity="1" stop-color="rgb(195,209,213)" offset="100%"/>
</linearGradient>
<linearGradient x1="506" x2="506" y1="350" gradientUnits="userSpaceOnUse" y2="466" xlink:type="simple" xlink:actuate="onLoad" id="linearGradient5" xlink:show="other" spreadMethod="pad">
<stop stop-opacity="1" stop-color="white" offset="0%"/>
<stop stop-opacity="1" stop-color="rgb(195,209,213)" offset="100%"/>
</linearGradient>
<linearGradient x1="10" x2="10" y1="10" gradientUnits="userSpaceOnUse" y2="72" xlink:type="simple" xlink:actuate="onLoad" id="linearGradient6" xlink:show="other" spreadMethod="pad">
<stop stop-opacity="1" stop-color="white" offset="0%"/>
<stop stop-opacity="1" stop-color="rgb(195,215,221)" offset="100%"/>
</linearGradient>
<linearGradient x1="12" x2="12" y1="92" gradientUnits="userSpaceOnUse" y2="208" xlink:type="simple" xlink:actuate="onLoad" id="linearGradient7" xlink:show="other" spreadMethod="pad">
<stop stop-opacity="1" stop-color="white" offset="0%"/>
<stop stop-opacity="1" stop-color="rgb(195,209,213)" offset="100%"/>
</linearGradient>
<linearGradient x1="10" x2="10" y1="350" gradientUnits="userSpaceOnUse" y2="466" xlink:type="simple" xlink:actuate="onLoad" id="linearGradient8" xlink:show="other" spreadMethod="pad">
<stop stop-opacity="1" stop-color="white" offset="0%"/>
<stop stop-opacity="1" stop-color="rgb(195,209,213)" offset="100%"/>
</linearGradient>
<clipPath clipPathUnits="userSpaceOnUse" id="clipPath1">
<path d="M134 350 L134 465 L237 465 L237 350 Z"/>
</clipPath>
<clipPath clipPathUnits="userSpaceOnUse" id="clipPath2">
<path d="M134 352 L239 352 L239 379 L134 379 L134 352 Z"/>
</clipPath>
<clipPath clipPathUnits="userSpaceOnUse" id="clipPath3">
<path d="M141 378 L233 378 L233 405 L141 405 L141 378 Z"/>
</clipPath>
<clipPath clipPathUnits="userSpaceOnUse" id="clipPath4">
<path d="M134 404 L239 404 L239 436 L134 436 L134 404 Z"/>
</clipPath>
<clipPath clipPathUnits="userSpaceOnUse" id="clipPath5">
<path d="M134 435 L239 435 L239 467 L134 467 L134 435 Z"/>
</clipPath>
<clipPath clipPathUnits="userSpaceOnUse" id="clipPath6">
<path d="M133 349 L239 349 L239 467 L133 467 L133 349 Z"/>
</clipPath>
<clipPath clipPathUnits="userSpaceOnUse" id="clipPath7">
<path d="M249 228 L249 288 L369 288 L369 228 Z"/>
</clipPath>
<clipPath clipPathUnits="userSpaceOnUse" id="clipPath8">
<path d="M261 232 L359 232 L359 259 L261 259 L261 232 Z"/>
</clipPath>
<clipPath clipPathUnits="userSpaceOnUse" id="clipPath9">
<path d="M289 258 L331 258 L331 285 L289 285 L289 258 Z"/>
</clipPath>
<clipPath clipPathUnits="userSpaceOnUse" id="clipPath10">
<path d="M248 227 L371 227 L371 290 L248 290 L248 227 Z"/>
</clipPath>
<clipPath clipPathUnits="userSpaceOnUse" id="clipPath11">
<path d="M258 350 L258 465 L361 465 L361 350 Z"/>
</clipPath>
<clipPath clipPathUnits="userSpaceOnUse" id="clipPath12">
<path d="M258 352 L363 352 L363 379 L258 379 L258 352 Z"/>
</clipPath>
<clipPath clipPathUnits="userSpaceOnUse" id="clipPath13">
<path d="M291 378 L331 378 L331 405 L291 405 L291 378 Z"/>
</clipPath>
<clipPath clipPathUnits="userSpaceOnUse" id="clipPath14">
<path d="M258 404 L363 404 L363 436 L258 436 L258 404 Z"/>
</clipPath>
<clipPath clipPathUnits="userSpaceOnUse" id="clipPath15">
<path d="M258 435 L363 435 L363 467 L258 467 L258 435 Z"/>
</clipPath>
<clipPath clipPathUnits="userSpaceOnUse" id="clipPath16">
<path d="M257 349 L363 349 L363 467 L257 467 L257 349 Z"/>
</clipPath>
<clipPath clipPathUnits="userSpaceOnUse" id="clipPath17">
<path d="M382 350 L382 465 L485 465 L485 350 Z"/>
</clipPath>
<clipPath clipPathUnits="userSpaceOnUse" id="clipPath18">
<path d="M382 352 L487 352 L487 379 L382 379 L382 352 Z"/>
</clipPath>
<clipPath clipPathUnits="userSpaceOnUse" id="clipPath19">
<path d="M414 378 L455 378 L455 405 L414 405 L414 378 Z"/>
</clipPath>
<clipPath clipPathUnits="userSpaceOnUse" id="clipPath20">
<path d="M382 404 L487 404 L487 436 L382 436 L382 404 Z"/>
</clipPath>
<clipPath clipPathUnits="userSpaceOnUse" id="clipPath21">
<path d="M382 435 L487 435 L487 467 L382 467 L382 435 Z"/>
</clipPath>
<clipPath clipPathUnits="userSpaceOnUse" id="clipPath22">
<path d="M381 349 L487 349 L487 467 L381 467 L381 349 Z"/>
</clipPath>
<clipPath clipPathUnits="userSpaceOnUse" id="clipPath23">
<path d="M506 350 L506 465 L609 465 L609 350 Z"/>
</clipPath>
<clipPath clipPathUnits="userSpaceOnUse" id="clipPath24">
<path d="M506 352 L611 352 L611 379 L506 379 L506 352 Z"/>
</clipPath>
<clipPath clipPathUnits="userSpaceOnUse" id="clipPath25">
<path d="M542 378 L576 378 L576 405 L542 405 L542 378 Z"/>
</clipPath>
<clipPath clipPathUnits="userSpaceOnUse" id="clipPath26">
<path d="M506 404 L611 404 L611 436 L506 436 L506 404 Z"/>
</clipPath>
<clipPath clipPathUnits="userSpaceOnUse" id="clipPath27">
<path d="M506 435 L611 435 L611 467 L506 467 L506 435 Z"/>
</clipPath>
<clipPath clipPathUnits="userSpaceOnUse" id="clipPath28">
<path d="M505 349 L611 349 L611 467 L505 467 L505 349 Z"/>
</clipPath>
<clipPath clipPathUnits="userSpaceOnUse" id="clipPath29">
<path d="M10 10 L10 71 L131 71 L131 10 Z"/>
</clipPath>
<clipPath clipPathUnits="userSpaceOnUse" id="clipPath30">
<path d="M23 15 L121 15 L121 42 L23 42 L23 15 Z"/>
</clipPath>
<clipPath clipPathUnits="userSpaceOnUse" id="clipPath31">
<path d="M25 41 L119 41 L119 68 L25 68 L25 41 Z"/>
</clipPath>
<clipPath clipPathUnits="userSpaceOnUse" id="clipPath32">
<path d="M9 9 L133 9 L133 73 L9 73 L9 9 Z"/>
</clipPath>
<clipPath clipPathUnits="userSpaceOnUse" id="clipPath33">
<path d="M12 92 L12 207 L128 207 L128 92 Z"/>
</clipPath>
<clipPath clipPathUnits="userSpaceOnUse" id="clipPath34">
<path d="M18 94 L124 94 L124 121 L18 121 L18 94 Z"/>
</clipPath>
<clipPath clipPathUnits="userSpaceOnUse" id="clipPath35">
<path d="M51 120 L91 120 L91 147 L51 147 L51 120 Z"/>
</clipPath>
<clipPath clipPathUnits="userSpaceOnUse" id="clipPath36">
<path d="M12 146 L130 146 L130 178 L12 178 L12 146 Z"/>
</clipPath>
<clipPath clipPathUnits="userSpaceOnUse" id="clipPath37">
<path d="M12 177 L130 177 L130 209 L12 209 L12 177 Z"/>
</clipPath>
<clipPath clipPathUnits="userSpaceOnUse" id="clipPath38">
<path d="M11 91 L130 91 L130 209 L11 209 L11 91 Z"/>
</clipPath>
<clipPath clipPathUnits="userSpaceOnUse" id="clipPath39">
<path d="M10 350 L10 465 L113 465 L113 350 Z"/>
</clipPath>
<clipPath clipPathUnits="userSpaceOnUse" id="clipPath40">
<path d="M10 352 L115 352 L115 379 L10 379 L10 352 Z"/>
</clipPath>
<clipPath clipPathUnits="userSpaceOnUse" id="clipPath41">
<path d="M25 378 L100 378 L100 405 L25 405 L25 378 Z"/>
</clipPath>
<clipPath clipPathUnits="userSpaceOnUse" id="clipPath42">
<path d="M10 404 L115 404 L115 436 L10 436 L10 404 Z"/>
</clipPath>
<clipPath clipPathUnits="userSpaceOnUse" id="clipPath43">
<path d="M10 435 L115 435 L115 467 L10 467 L10 435 Z"/>
</clipPath>
<clipPath clipPathUnits="userSpaceOnUse" id="clipPath44">
<path d="M9 349 L115 349 L115 467 L9 467 L9 349 Z"/>
</clipPath>
<clipPath clipPathUnits="userSpaceOnUse" id="clipPath45">
<path d="M-1 -1 L621 -1 L621 477 L-1 477 L-1 -1 Z"/>
</clipPath>
<clipPath clipPathUnits="userSpaceOnUse" id="clipPath46">
<path d="M273 288 L291 288 L291 303 L273 303 L273 288 Z"/>
</clipPath>
<clipPath clipPathUnits="userSpaceOnUse" id="clipPath47">
<path d="M303 288 L316 288 L316 306 L303 306 L303 288 Z"/>
</clipPath>
<clipPath clipPathUnits="userSpaceOnUse" id="clipPath48">
<path d="M328 288 L346 288 L346 303 L328 303 L328 288 Z"/>
</clipPath>
<clipPath clipPathUnits="userSpaceOnUse" id="clipPath49">
<path d="M348 287 L367 287 L367 300 L348 300 L348 287 Z"/>
</clipPath>
<clipPath clipPathUnits="userSpaceOnUse" id="clipPath50">
<path d="M64 71 L77 71 L77 89 L64 89 L64 71 Z"/>
</clipPath>
<clipPath clipPathUnits="userSpaceOnUse" id="clipPath51">
<path d="M252 287 L271 287 L271 300 L252 300 L252 287 Z"/>
</clipPath>
</defs>
<g font-size="18" fill="url(#linearGradient1)" font-family="'Segoe UI'" stroke-linejoin="round" stroke="url(#linearGradient1)" stroke-width="0" stroke-miterlimit="0">
<rect x="134" y="350" clip-path="url(#clipPath1)" width="104" height="116" stroke="none"/>
<text x="135" y="373" clip-path="url(#clipPath2)" fill="black" stroke="none" xml:space="preserve">«Stereotype»</text>
<text x="142" y="399" clip-path="url(#clipPath3)" fill="black" stroke="none" xml:space="preserve">Datasource</text>
</g>
<g stroke-width="1.1" font-size="18" font-family="'Segoe UI'" stroke-linecap="butt">
<line clip-path="url(#clipPath4)" fill="none" x1="134" x2="238" y1="405" y2="405"/>
<line clip-path="url(#clipPath5)" fill="none" x1="134" x2="238" y1="436" y2="436"/>
<rect x="134" y="350" clip-path="url(#clipPath6)" fill="none" width="103" rx="0" ry="0" height="115"/>
<rect x="249" y="228" clip-path="url(#clipPath7)" fill="url(#linearGradient2)" width="121" height="61" stroke="none"/>
<text xml:space="preserve" x="262" y="253" clip-path="url(#clipPath8)" stroke="none">«Metaclass»</text>
<text xml:space="preserve" x="290" y="279" clip-path="url(#clipPath9)" stroke="none">Class</text>
<rect x="249" y="228" clip-path="url(#clipPath10)" fill="none" width="120" rx="0" ry="0" height="60"/>
<rect x="258" y="350" clip-path="url(#clipPath11)" fill="url(#linearGradient3)" width="104" height="116" stroke="none"/>
<text xml:space="preserve" x="259" y="373" clip-path="url(#clipPath12)" stroke="none">«Stereotype»</text>
<text xml:space="preserve" x="292" y="399" clip-path="url(#clipPath13)" stroke="none">View</text>
<line clip-path="url(#clipPath14)" fill="none" x1="258" x2="362" y1="405" y2="405"/>
<line clip-path="url(#clipPath15)" fill="none" x1="258" x2="362" y1="436" y2="436"/>
<rect x="258" y="350" clip-path="url(#clipPath16)" fill="none" width="103" rx="0" ry="0" height="115"/>
<rect x="382" y="350" clip-path="url(#clipPath17)" fill="url(#linearGradient4)" width="104" height="116" stroke="none"/>
<text xml:space="preserve" x="383" y="373" clip-path="url(#clipPath18)" stroke="none">«Stereotype»</text>
<text xml:space="preserve" x="415" y="399" clip-path="url(#clipPath19)" stroke="none">Filter</text>
<line clip-path="url(#clipPath20)" fill="none" x1="382" x2="486" y1="405" y2="405"/>
<line clip-path="url(#clipPath21)" fill="none" x1="382" x2="486" y1="436" y2="436"/>
<rect x="382" y="350" clip-path="url(#clipPath22)" fill="none" width="103" rx="0" ry="0" height="115"/>
<rect x="506" y="350" clip-path="url(#clipPath23)" fill="url(#linearGradient5)" width="104" height="116" stroke="none"/>
<text xml:space="preserve" x="507" y="373" clip-path="url(#clipPath24)" stroke="none">«Stereotype»</text>
<text xml:space="preserve" x="543" y="399" clip-path="url(#clipPath25)" stroke="none">Join</text>
<line clip-path="url(#clipPath26)" fill="none" x1="506" x2="610" y1="405" y2="405"/>
<line clip-path="url(#clipPath27)" fill="none" x1="506" x2="610" y1="436" y2="436"/>
<rect x="506" y="350" clip-path="url(#clipPath28)" fill="none" width="103" rx="0" ry="0" height="115"/>
<rect x="10" y="10" clip-path="url(#clipPath29)" fill="url(#linearGradient6)" width="122" height="62" stroke="none"/>
<text xml:space="preserve" x="24" y="36" clip-path="url(#clipPath30)" stroke="none">«Metaclass»</text>
<text xml:space="preserve" x="26" y="62" clip-path="url(#clipPath31)" stroke="none">Association</text>
<rect x="10" y="10" clip-path="url(#clipPath32)" fill="none" width="121" rx="0" ry="0" height="61"/>
<rect x="12" y="92" clip-path="url(#clipPath33)" fill="url(#linearGradient7)" width="117" height="116" stroke="none"/>
<text xml:space="preserve" x="19" y="115" clip-path="url(#clipPath34)" stroke="none">«Stereotype»</text>
<text xml:space="preserve" x="52" y="141" clip-path="url(#clipPath35)" stroke="none">Flow</text>
<line clip-path="url(#clipPath36)" fill="none" x1="12" x2="129" y1="147" y2="147"/>
<line clip-path="url(#clipPath37)" fill="none" x1="12" x2="129" y1="178" y2="178"/>
<rect x="12" y="92" clip-path="url(#clipPath38)" fill="none" width="116" rx="0" ry="0" height="115"/>
<rect x="10" y="350" clip-path="url(#clipPath39)" fill="url(#linearGradient8)" width="104" height="116" stroke="none"/>
<text xml:space="preserve" x="11" y="373" clip-path="url(#clipPath40)" stroke="none">«Stereotype»</text>
<text xml:space="preserve" x="26" y="399" clip-path="url(#clipPath41)" stroke="none">Union All</text>
<line clip-path="url(#clipPath42)" fill="none" x1="10" x2="114" y1="405" y2="405"/>
<line clip-path="url(#clipPath43)" fill="none" x1="10" x2="114" y1="436" y2="436"/>
<rect x="10" y="350" clip-path="url(#clipPath44)" fill="none" width="103" rx="0" ry="0" height="115"/>
<line clip-path="url(#clipPath45)" fill="none" text-rendering="optimizeLegibility" x1="186" x2="289" y1="350" y2="289"/>
<polygon text-rendering="optimizeLegibility" clip-path="url(#clipPath46)" points=" 289 289 279 301 274 292" stroke="none"/>
<polygon text-rendering="optimizeLegibility" fill="none" clip-path="url(#clipPath46)" points=" 289 289 279 301 274 292"/>
<line clip-path="url(#clipPath45)" fill="none" text-rendering="optimizeLegibility" x1="310" x2="309" y1="350" y2="289"/>
<polygon text-rendering="optimizeLegibility" clip-path="url(#clipPath47)" points=" 309 289 314 304 304 304" stroke="none"/>
<polygon text-rendering="optimizeLegibility" fill="none" clip-path="url(#clipPath47)" points=" 309 289 314 304 304 304"/>
<line clip-path="url(#clipPath45)" fill="none" text-rendering="optimizeLegibility" x1="434" x2="329" y1="350" y2="289"/>
<polygon text-rendering="optimizeLegibility" clip-path="url(#clipPath48)" points=" 329 289 344 292 339 301" stroke="none"/>
<polygon text-rendering="optimizeLegibility" fill="none" clip-path="url(#clipPath48)" points=" 329 289 344 292 339 301"/>
<line clip-path="url(#clipPath45)" fill="none" text-rendering="optimizeLegibility" x1="558" x2="349" y1="350" y2="289"/>
<polygon text-rendering="optimizeLegibility" clip-path="url(#clipPath49)" points=" 349 289 365 288 362 298" stroke="none"/>
<polygon text-rendering="optimizeLegibility" fill="none" clip-path="url(#clipPath49)" points=" 349 289 365 288 362 298"/>
<line clip-path="url(#clipPath45)" fill="none" text-rendering="optimizeLegibility" x1="70" x2="71" y1="92" y2="72"/>
<polygon text-rendering="optimizeLegibility" clip-path="url(#clipPath50)" points=" 71 72 75 87 65 87" stroke="none"/>
<polygon text-rendering="optimizeLegibility" fill="none" clip-path="url(#clipPath50)" points=" 71 72 75 87 65 87"/>
<line clip-path="url(#clipPath45)" fill="none" text-rendering="optimizeLegibility" x1="62" x2="269" y1="350" y2="289"/>
<polygon text-rendering="optimizeLegibility" clip-path="url(#clipPath51)" points=" 269 289 256 298 253 288" stroke="none"/>
<polygon text-rendering="optimizeLegibility" fill="none" clip-path="url(#clipPath51)" points=" 269 289 256 298 253 288"/>
</g>
</g>
<rect x="134" y="350" fill-opacity="0" width="104" id="Datasource" height="116" stroke-opacity="0"/>
<rect x="249" y="228" fill-opacity="0" width="121" title="A Class classifies a set of objects and specifies the features that characterize the structure and behavior of those objects.  A Class may have an internal structure and Ports." id="Class" height="61" stroke-opacity="0">
<title>A Class classifies a set of objects and specifies the features that characterize the structure and behavior of those objects.  A Class may have an internal structure and Ports.</title>
</rect>
<rect x="258" y="350" fill-opacity="0" width="104" id="View" height="116" stroke-opacity="0"/>
<rect x="382" y="350" fill-opacity="0" width="104" id="Filter" height="116" stroke-opacity="0"/>
<rect x="506" y="350" fill-opacity="0" width="104" id="Join" height="116" stroke-opacity="0"/>
<rect x="10" y="10" fill-opacity="0" width="122" title="A link is a tuple of values that refer to typed objects.  An Association classifies a set of links, each of which is an instance of the Association.  Each value in the link refers to an instance of the type of the corresponding end of the Association." id="Association" height="62" stroke-opacity="0">
<title>A link is a tuple of values that refer to typed objects.  An Association classifies a set of links, each of which is an instance of the Association.  Each value in the link refers to an instance of the type of the corresponding end of the Association.</title>
</rect>
<rect x="12" y="92" fill-opacity="0" width="117" id="Flow" height="116" stroke-opacity="0"/>
<rect x="10" y="350" fill-opacity="0" width="104" id="Union All" height="116" stroke-opacity="0"/>
</svg>
